<?xml version="1.0" standalone="no"?>
<!DOCTYPE svg PUBLIC "-//W3C//DTD SVG 20010904//EN"
 "http://www.w3.org/TR/2001/REC-SVG-20010904/DTD/svg10.dtd">
<svg version="1.0" xmlns="http://www.w3.org/2000/svg"
 width="592.000000pt" height="592.000000pt" viewBox="0 0 592.000000 592.000000"
 preserveAspectRatio="xMidYMid meet">
<metadata>
Created by potrace 1.11, written by Peter Selinger 2001-2013
</metadata>
<g transform="translate(0.000000,592.000000) scale(0.100000,-0.100000)"
fill="#000000" stroke="none">
<path d="M3567 5274 c-1 -1 -36 -4 -77 -7 -306 -24 -674 -132 -1010 -297 -55
-28 -105 -50 -110 -50 -6 0 -10 -3 -10 -8 0 -4 -15 -13 -32 -21 -66 -28 -348
-197 -533 -319 -156 -103 -476 -334 -521 -376 -7 -6 -62 -54 -123 -106 -107
-92 -349 -330 -424 -419 -40 -47 -48 -91 -23 -127 13 -18 10 -25 -36 -84 -49
-63 -51 -65 -92 -62 -54 4 -74 -14 -151 -138 -126 -203 -251 -477 -300 -660
-1 -3 -7 -23 -13 -45 -21 -72 -61 -259 -68 -320 -3 -33 -8 -69 -10 -80 -13
-67 -18 -269 -18 -816 -1 -570 0 -617 17 -642 26 -41 59 -44 151 -14 81 26
105 33 148 44 13 3 86 7 163 8 144 3 242 -12 340 -51 90 -36 151 -58 215 -75
65 -17 225 -35 296 -33 56 1 83 4 198 19 22 3 91 24 155 46 243 85 274 92 421
93 74 1 155 -2 180 -6 56 -9 156 -35 179 -47 16 -9 181 -68 191 -69 3 0 23 -5
45 -11 50 -13 181 -25 260 -24 146 2 261 25 400 78 171 66 229 78 395 79 170
1 229 -10 409 -78 150 -57 281 -82 416 -80 82 1 121 4 225 20 19 3 80 22 135
41 256 89 310 101 449 101 125 0 191 -10 310 -48 115 -37 131 -37 165 -2 l27
27 -1 857 0 858 -26 26 c-25 25 -33 26 -145 29 -149 5 -311 16 -404 30 -424
63 -717 189 -912 393 -145 152 -209 310 -202 502 8 226 151 431 338 485 55 16
148 22 183 11 10 -3 30 -7 45 -10 25 -4 72 -26 173 -80 57 -30 146 -16 203 33
36 31 61 99 57 156 -8 118 -19 184 -50 303 -61 229 -160 406 -314 561 -95 95
-98 98 -191 160 -189 125 -447 207 -755 237 -54 6 -333 12 -338 8z"/>
</g>
</svg>
